{"title":"Tracks - Attraverso Il Deserto (2013) [XviD - Italian English Ac","uid":11666083,"size":2027280601,"categoryP":"video","categoryS":"movies","magnet":"?xt=urn:btih:33650cfd71044779636c0c1eb8b99d28cf432b4f&amp;dn=Tracks+-+Attraverso+Il+Deserto+%282013%29+%5BXviD+-+Italian+English+Ac&amp;tr=udp%3A%2F%2Ftracker.openbittorrent.com%3A80&amp;tr=udp%3A%2F%2Fopen.demonii.com%3A1337&amp;tr=udp%3A%2F%2Ftracker.coppersurfer.tk%3A6969&amp;tr=udp%3A%2F%2Fexodus.desync.com%3A6969","seeders":32,"leechers":3,"uploader":"robbyrs4","files":3,"time":1418059281,"description":"Tracks - Attraverso Il Deserto (2013) [XviD - Italian English Ac3 5.1 - Sub ita Eng] MIRCrew\n\n\n[center][color=red][b][img]http://s19.postimg.org/mqmhlwtlf/Mircrew_original_red_skull.png[/img]\n\n[u]NO FOUND ONLY ORIGINAL RELEASE[/u]\n\n\nTracks - Attraverso Il Deserto (2013)\n\n\n[img]http://mr.comingsoon.it/imgdb/locandine/235x336/49996.jpg[/img]\n\n[URL=http://www.imdb.com/title/tt1541123/][IMG]http://www.userlogos.org/files/logos/Sucka/imdb_new.png[/IMG][/URL]  \n\n[img]http://imageshack.us/a/img534/6946/zcu.gif[/img]\n\nTitolo originale \tTracks\nLingua originale \tinglese\nPaese di produzione \tAustralia\nAnno \t2013\nDurata \t112 min\nRapporto \t2,35 : 1\nGenere \tbiografico, drammatico\nRegia \tJohn Curran\nSceneggiatura \tMarion Nelson\nProduttore \tIain Canning, Emile Sherman\nProduttore esecutivo \tAndrew Mackie, Richard Payten\nCasa di produzione \tSee-Saw Films\nDistribuzione (Italia) \tBiM Distribuzione\nFotografia \tMandy Walker\nMontaggio \tAlexandre de Franceschi\nEffetti speciali \tTim O'Brien\nScenografia \tMelinda Doring\nCostumi \tMarriott Kerr\n\n[img]http://imageshack.us/a/img4/8946/u96.gif[/img]\n\n\n    Mia Wasikowska: Robyn Davidson\n    Adam Driver: Rick Smolan\n    Emma Booth: Marg\n    Jessica Tovey: Jenny\n    Melanie Zanetti: Annie\n    Rainer Bock: Kurt Posel\n    Robert Coleby: Pop\n    John Flaus: Sallay\n\nDoppiatori italiani\n\n    Chiara Gioncardi: Robyn Davidson\n    Gianfranco Miranda: Rick Smolan\n    Angelo Nicotra: Kurt Posel\n    Michele Gammino: Sallay\n\n\n[img]http://imageshack.us/a/img844/6546/cupz.gif[/img]. \n\nIl film narra la vera storia di Robyn Davidson, una scrittrice australiana che nel 1977 intraprende un viaggio lungo 2700 Km da Alice Springs fino al mare, attraverso lo sterminato bush australiano. Ad accompagnarla nei nove mesi di viaggio, soltanto quattro cammelli e il fedele cane. .................\n\n[img]http://imageshack.us/a/img202/6180/4e6.gif[/img]\n\nA young woman goes on a 1,700-mile trek across the deserts of West Australia with four camels and her faithful dog. ..........\n\n\n\n\n\n\n[img]http://imageshack.us/a/img571/2166/an4p.gif[/img]\n\n\n[spoiler]\nGeneral\nComplete name                            : Tracks - Attraverso Il Deserto (2013).ita.eng.sub.ita.eng.MIRCrewTracks - Attraverso Il Deserto (2013).ita.eng.sub.ita.eng.MIRCrew.avi\nFormat                                   : AVI\nFormat/Info                              : Audio Video Interleave\nFile size                                : 1.89 GiB\nDuration                                 : 1h 52mn\nOverall bit rate                         : 2 402 Kbps\nWriting application                      : VirtualDubMod 1.5.10.2 (build 2540/release)\nWriting library                          : VirtualDubMod build 2540/release\n\nVideo\nID                                       : 0\nFormat                                   : MPEG-4 Visual\nFormat profile                           : Simple@L3\nFormat settings, BVOP                    : No\nFormat settings, QPel                    : No\nFormat settings, GMC                     : No warppoints\nFormat settings, Matrix                  : Default (H.263)\nCodec ID                                 : XVID\nCodec ID/Hint                            : XviD\nDuration                                 : 1h 52mn\nBit rate                                 : 1 491 Kbps\nWidth                                    : 720 pixels\nHeight                                   : 300 pixels\nDisplay aspect ratio                     : 2.40:1\nFrame rate                               : 24.000 fps\nColor space                              : YUV\nChroma subsampling                       : 4:2:0\nBit depth                                : 8 bits\nScan type                                : Progressive\nCompression mode                         : Lossy\nBits/(Pixel*Frame)                       : 0.288\nStream size                              : 1.17 GiB (62%)\nWriting library                          : XviD 65\n\nAudio #1\nID                                       : 1\nFormat                                   : AC-3\nFormat/Info                              : Audio Coding 3\nMode extension                           : CM (complete main)\nCodec ID                                 : 2000\nDuration                                 : 1h 52mn\nBit rate mode                            : Constant\nBit rate                                 : 448 Kbps\nChannel(s)                               : 6 channels\nChannel positions                        : Front: L C R, Side: L R, LFE\nSampling rate                            : 48.0 KHz\nBit depth                                : 16 bits\nCompression mode                         : Lossy\nStream size                              : 361 MiB (19%)\nAlignment                                : Split accross interleaves\nInterleave, duration                     : 42 ms (1.00 video frame)\nInterleave, preload duration             : 500 ms\n\nAudio #2\nID                                       : 2\nFormat                                   : AC-3\nFormat/Info                              : Audio Coding 3\nMode extension                           : CM (complete main)\nCodec ID                                 : 2000\nDuration                                 : 1h 52mn\nBit rate mode                            : Constant\nBit rate                                 : 448 Kbps\nChannel(s)                               : 6 channels\nChannel positions                        : Front: L C R, Side: L R, LFE\nSampling rate                            : 48.0 KHz\nBit depth                                : 16 bits\nCompression mode                         : Lossy\nStream size                              : 361 MiB (19%)\nAlignment                                : Split accross interleaves\nInterleave, duration                     : 42 ms (1.00 video frame)\nInterleave, preload duration             : 500 ms\n\n\n\n[/spoiler]\n\n[/color][/b][/center]","torrent":{"xt":"urn:btih:33650cfd71044779636c0c1eb8b99d28cf432b4f","amp;dn":"Tracks+-+Attraverso+Il+Deserto+%282013%29+%5BXviD+-+Italian+English+Ac","amp;tr":["udp%3A%2F%2Ftracker.openbittorrent.com%3A80","udp%3A%2F%2Fopen.demonii.com%3A1337","udp%3A%2F%2Ftracker.coppersurfer.tk%3A6969","udp%3A%2F%2Fexodus.desync.com%3A6969"],"infoHash":"33650cfd71044779636c0c1eb8b99d28cf432b4f","infoHashBuffer":{"type":"Buffer","data":[51,101,12,253,113,4,71,121,99,108,12,30,184,185,157,40,207,67,43,79]},"announce":[],"urlList":[]}}